HIERARCHY
ROOT joint_Root
{
	OFFSET 0.0 0.0 0.0
	CHANNELS 6 Xposition Yposition Zposition Zrotation Xrotation Yrotation 
	JOINT Hips
	{
		OFFSET -17.1583 93.1646 452.98
		CHANNELS 6 Xposition Yposition Zposition Zrotation Xrotation Yrotation 
		JOINT Spine
		{
			OFFSET 15.7357 0.0 0.0
			CHANNELS 6 Xposition Yposition Zposition Zrotation Xrotation Yrotation 
			JOINT Chest
			{
				OFFSET 8.98455 -0.406207 0.0
				CHANNELS 6 Xposition Yposition Zposition Zrotation Xrotation Yrotation 
				JOINT Neck
				{
					OFFSET 16.3773 0.0 0.0
					CHANNELS 6 Xposition Yposition Zposition Zrotation Xrotation Yrotation 
					JOINT Head
					{
						OFFSET 6.45672 0.0 0.0
						CHANNELS 6 Xposition Yposition Zposition Zrotation Xrotation Yrotation 
						End Site
						{
							OFFSET 0.0 0.0 0.0
						}
					}
				}
				JOINT Shoulder_L
				{
					OFFSET 12.9942 -0.242716 4.98039
					CHANNELS 6 Xposition Yposition Zposition Zrotation Xrotation Yrotation 
					JOINT UpperArm_L
					{
						OFFSET 5.34809 0.0 0.0
						CHANNELS 6 Xposition Yposition Zposition Zrotation Xrotation Yrotation 
						JOINT LowerArm_L
						{
							OFFSET 24.3286 1.87007e-05 0.0
							CHANNELS 6 Xposition Yposition Zposition Zrotation Xrotation Yrotation 
							JOINT Hand_L
							{
								OFFSET 22.2916 0.0 0.0
								CHANNELS 6 Xposition Yposition Zposition Zrotation Xrotation Yrotation 
								End Site
								{
									OFFSET 0.0 0.0 0.0
								}
							}
						}
					}
				}
				JOINT Shoulder_R
				{
					OFFSET 12.9945 -0.242716 -4.98039
					CHANNELS 6 Xposition Yposition Zposition Zrotation Xrotation Yrotation 
					JOINT UpperArm_R
					{
						OFFSET -5.34813 0.0 0.0
						CHANNELS 6 Xposition Yposition Zposition Zrotation Xrotation Yrotation 
						JOINT LowerArm_R
						{
							OFFSET -24.3289 0.000322201 0.0
							CHANNELS 6 Xposition Yposition Zposition Zrotation Xrotation Yrotation 
							JOINT Hand_R
							{
								OFFSET -22.2915 -0.000108084 0.0
								CHANNELS 6 Xposition Yposition Zposition Zrotation Xrotation Yrotation 
								End Site
								{
									OFFSET 0.0 0.0 0.0
								}
							}
						}
					}
				}
			}
		}
		JOINT UpperLeg_L
		{
			OFFSET -2.19248 -6.46944 0.0
			CHANNELS 6 Xposition Yposition Zposition Zrotation Xrotation Yrotation 
			JOINT LowerLeg_L
			{
				OFFSET 39.0811 0.0 -1.23785e-05
				CHANNELS 6 Xposition Yposition Zposition Zrotation Xrotation Yrotation 
				JOINT Foot_L
				{
					OFFSET 40.9854 0.0 -1.26872e-05
					CHANNELS 6 Xposition Yposition Zposition Zrotation Xrotation Yrotation 
					JOINT Toes_L
					{
						OFFSET 11.7543 0.0 0.0
						CHANNELS 6 Xposition Yposition Zposition Zrotation Xrotation Yrotation 
						End Site
						{
							OFFSET 0.0 0.0 0.0
						}
					}
				}
			}
		}
		JOINT UpperLeg_R
		{
			OFFSET -2.19251 6.46944 0.0
			CHANNELS 6 Xposition Yposition Zposition Zrotation Xrotation Yrotation 
			JOINT LowerLeg_R
			{
				OFFSET -39.0811 -0.00228153 -0.0401928
				CHANNELS 6 Xposition Yposition Zposition Zrotation Xrotation Yrotation 
				JOINT Foot_R
				{
					OFFSET -40.9854 0.0 0.0
					CHANNELS 6 Xposition Yposition Zposition Zrotation Xrotation Yrotation 
					JOINT Toes_R
					{
						OFFSET -11.7543 0.0 0.0
						CHANNELS 6 Xposition Yposition Zposition Zrotation Xrotation Yrotation 
						End Site
						{
							OFFSET 0.0 0.0 0.0
						}
					}
				}
			}
		}
	}
}
MOTION
Frames:	9
Frame Time:	0.0333333
0.000000 0.000000 0.000000 0.000000 0.000000 -0.000000 -4.878390 91.705700 0.500169 84.308600 1.493900 4.135700 15.735700 0.000005 -0.000001 76.650700 87.199300 -73.985700 8.984550 -0.406207 -0.000000 -2.275300 -1.526250 5.299650 16.377300 -0.000001 -0.000001 7.801950 1.930230 -11.883100 6.456720 -0.000001 -0.000000 2.561470 -1.601370 -23.040500 12.994200 -0.242716 4.980390 -92.834600 7.570510 -69.402600 5.348090 -0.000007 -0.000001 -73.358200 6.266910 -4.204030 24.328600 0.000019 0.000005 47.197000 -45.051700 -123.243000 22.291600 -0.000001 0.000005 51.044400 4.918840 8.999640 12.994500 -0.242716 -4.980390 88.482200 4.587950 -71.672400 -5.348130 -0.000001 -0.000004 -71.472900 30.260300 -3.023160 -24.328900 0.000322 -0.000009 2.066540 7.006060 -16.487600 -22.291500 -0.000108 -0.000004 1.297940 5.221150 2.183440 -2.192480 -6.469440 -0.000000 -170.514000 4.501680 -3.401510 39.081100 -0.000007 -0.000012 0.327425 -0.610784 28.195300 40.985400 -0.000006 -0.000013 -1.102210 10.501700 -76.975000 11.754300 -0.000000 0.000003 -0.000065 0.168705 -9.734180 -2.192510 6.469440 -0.000001 -169.133000 7.033960 -176.062000 -39.081100 -0.002282 -0.040193 0.124953 -0.448483 15.173200 -40.985400 0.000008 0.000006 5.996410 -0.531447 -71.423400 -11.754300 -0.000006 -0.000006 -0.011071 0.279140 -5.230400
0.000000 0.000000 0.000000 0.000000 0.000000 -0.000000 -4.860060 91.710500 0.497138 84.325400 1.528510 4.089880 15.735700 0.000005 -0.000001 76.540100 87.206100 -73.852300 8.984550 -0.406207 -0.000000 -2.290310 -1.535970 5.344650 16.377300 -0.000001 -0.000001 7.828290 1.832520 -11.849500 6.456720 -0.000001 -0.000000 2.497990 -1.752350 -23.115400 12.994200 -0.242716 4.980390 -92.839500 7.585380 -69.406500 5.348090 -0.000007 -0.000001 -73.360200 6.149940 -4.175990 24.328600 0.000019 0.000005 47.106900 -44.996000 -123.300000 22.291600 -0.000001 0.000005 50.882800 4.916160 9.053650 12.994500 -0.242716 -4.980390 88.493200 4.559220 -71.689300 -5.348130 -0.000001 -0.000004 -71.449700 30.191100 -3.047810 -24.328900 0.000322 -0.000009 2.065260 7.004130 -16.482300 -22.291500 -0.000108 -0.000004 1.286510 5.223350 2.126970 -2.192480 -6.469440 -0.000000 -170.536000 4.542300 -3.455220 39.081100 -0.000007 -0.000012 0.327560 -0.611481 28.177900 40.985400 -0.000006 -0.000013 -1.129790 10.532000 -76.937000 11.754300 -0.000000 0.000003 -0.000040 0.168299 -9.750680 -2.192510 6.469440 -0.000001 -169.152000 7.026190 -176.112000 -39.081100 -0.002282 -0.040193 0.124896 -0.448268 15.173300 -40.985400 0.000008 0.000006 5.951880 -0.554441 -71.416200 -11.754300 -0.000006 -0.000006 -0.011160 0.279775 -5.204400
0.000000 0.000000 0.000000 0.000000 0.000000 -0.000000 -4.838410 91.713800 0.498722 84.344500 1.573650 4.088150 15.735700 0.000005 -0.000001 76.653000 87.192600 -73.948200 8.984550 -0.406207 -0.000000 -2.261320 -1.532300 5.379260 16.377300 -0.000001 -0.000001 7.800580 1.725960 -11.820700 6.456720 -0.000001 -0.000000 2.433740 -1.899130 -23.169700 12.994200 -0.242716 4.980390 -92.825900 7.552640 -69.416500 5.348090 -0.000007 -0.000001 -73.410800 6.082100 -4.135530 24.328600 0.000019 0.000005 47.343200 -45.049500 -123.107000 22.291600 -0.000001 0.000005 50.891200 4.901300 9.351480 12.994500 -0.242716 -4.980390 88.483600 4.582830 -71.669000 -5.348130 -0.000001 -0.000004 -71.313800 30.304100 -3.099900 -24.328900 0.000322 -0.000009 2.062640 6.984930 -16.505100 -22.291500 -0.000108 -0.000004 1.336020 5.221960 2.162690 -2.192480 -6.469440 -0.000000 -170.561000 4.540510 -3.459060 39.081100 -0.000007 -0.000012 0.321562 -0.600671 28.162500 40.985400 -0.000006 -0.000013 -1.168850 10.557000 -76.889800 11.754300 -0.000000 0.000003 -0.000001 0.167646 -9.777170 -2.192510 6.469440 -0.000001 -169.179000 7.022460 -176.110000 -39.081100 -0.002282 -0.040193 0.125216 -0.449601 15.168400 -40.985400 0.000008 0.000006 5.942110 -0.584892 -71.430500 -11.754300 -0.000006 -0.000006 -0.011094 0.279305 -5.223670
0.000000 0.000000 0.000000 0.000000 0.000000 -0.000000 -4.826560 91.718800 0.493240 84.346600 1.593670 4.078600 15.735700 0.000005 -0.000001 76.698700 87.175500 -73.960000 8.984550 -0.406207 -0.000000 -2.226310 -1.537930 5.447330 16.377300 -0.000001 -0.000001 7.790640 1.656230 -11.828000 6.456720 -0.000001 -0.000000 2.348100 -2.031770 -23.252900 12.994200 -0.242716 4.980390 -92.831400 7.578840 -69.444700 5.348090 -0.000007 -0.000001 -73.435500 5.868950 -4.112380 24.328600 0.000019 0.000005 47.041600 -44.849700 -123.293000 22.291600 -0.000001 0.000005 50.948000 4.901120 9.355290 12.994500 -0.242716 -4.980390 88.492000 4.562550 -71.688100 -5.348130 -0.000001 -0.000004 -71.205400 30.263300 -3.182410 -24.328900 0.000322 -0.000009 2.073740 7.038860 -16.469500 -22.291500 -0.000108 -0.000004 1.332740 5.221700 2.169160 -2.192480 -6.469440 -0.000000 -170.564000 4.553040 -3.487690 39.081100 -0.000007 -0.000012 0.316900 -0.591849 28.167000 40.985400 -0.000006 -0.000013 -1.274840 10.575400 -76.838900 11.754300 -0.000000 0.000003 0.000085 0.166179 -9.836750 -2.192510 6.469440 -0.000001 -169.200000 7.050760 -176.122000 -39.081100 -0.002282 -0.040193 0.124219 -0.446036 15.164700 -40.985400 0.000008 0.000006 5.885660 -0.584940 -71.424300 -11.754300 -0.000006 -0.000006 -0.011137 0.279613 -5.211070
0.000000 0.000000 0.000000 0.000000 0.000000 -0.000000 -4.809720 91.714400 0.505176 84.353000 1.612360 4.038880 15.735700 0.000005 -0.000001 76.799600 87.170700 -74.039800 8.984550 -0.406207 -0.000000 -2.214420 -1.532000 5.489650 16.377300 -0.000001 -0.000001 7.793690 1.589840 -11.786800 6.456720 -0.000001 -0.000000 2.255050 -2.123120 -23.285400 12.994200 -0.242716 4.980390 -92.832700 7.586780 -69.455300 5.348090 -0.000007 -0.000001 -73.407900 5.806310 -4.075160 24.328600 0.000019 0.000005 47.059900 -44.808900 -123.257000 22.291600 -0.000001 0.000005 50.734400 4.884900 9.678030 12.994500 -0.242716 -4.980390 88.485300 4.573330 -71.653100 -5.348130 -0.000001 -0.000004 -71.078700 30.245800 -3.257590 -24.328900 0.000322 -0.000009 2.056000 6.989090 -16.445600 -22.291500 -0.000108 -0.000004 1.409000 5.222260 2.154850 -2.192480 -6.469440 -0.000000 -170.581000 4.552120 -3.541220 39.081100 -0.000007 -0.000012 0.320399 -0.597550 28.200300 40.985400 -0.000006 -0.000013 -1.265070 10.576500 -76.880100 11.754300 -0.000000 0.000003 -0.000077 0.168909 -9.725880 -2.192510 6.469440 -0.000001 -169.230000 7.188070 -176.158000 -39.081100 -0.002282 -0.040193 0.126676 -0.454736 15.176400 -40.985400 0.000008 0.000006 5.983010 -0.462686 -71.477000 -11.754300 -0.000006 -0.000006 -0.011317 0.280898 -5.158440
0.000000 0.000000 0.000000 0.000000 0.000000 -0.000000 -4.783210 91.727900 0.508189 84.363800 1.578930 3.980640 15.735700 0.000005 -0.000001 77.140600 87.176400 -74.363200 8.984550 -0.406207 -0.000000 -2.218470 -1.498280 5.525350 16.377300 -0.000001 -0.000001 7.830970 1.554560 -11.740300 6.456720 -0.000001 -0.000000 2.194290 -2.171300 -23.293800 12.994200 -0.242716 4.980390 -92.835800 7.605730 -69.481500 5.348090 -0.000007 -0.000001 -73.410100 5.558470 -3.987520 24.328600 0.000019 0.000005 46.599100 -44.568800 -123.570000 22.291600 -0.000001 0.000005 50.503300 4.905060 9.276530 12.994500 -0.242716 -4.980390 88.486500 4.575790 -71.675600 -5.348130 -0.000001 -0.000004 -70.991600 30.137500 -3.275300 -24.328900 0.000322 -0.000009 2.045800 6.959540 -16.433700 -22.291500 -0.000108 -0.000004 1.408970 5.223050 2.134670 -2.192480 -6.469440 -0.000000 -170.590000 4.503050 -3.562460 39.081100 -0.000007 -0.000012 0.314534 -0.588292 28.132100 40.985400 -0.000006 -0.000013 -1.327380 10.604500 -76.805300 11.754300 -0.000000 0.000003 -0.000236 0.171515 -9.620050 -2.192510 6.469440 -0.000001 -169.288000 7.236530 -176.217000 -39.081100 -0.002282 -0.040193 0.125254 -0.449138 15.187800 -40.985400 0.000008 0.000006 5.819290 -0.306136 -71.487900 -11.754300 -0.000006 -0.000006 -0.011497 0.282173 -5.106230
0.000000 0.000000 0.000000 0.000000 0.000000 -0.000000 -4.750920 91.739700 0.518375 84.419800 1.507570 3.897080 15.735700 0.000005 -0.000001 77.420300 87.191900 -74.643700 8.984550 -0.406207 -0.000000 -2.243280 -1.465210 5.524300 16.377300 -0.000001 -0.000001 7.881600 1.551450 -11.718500 6.456720 -0.000001 -0.000000 2.164020 -2.152310 -23.231000 12.994200 -0.242716 4.980390 -92.833800 7.593640 -69.464900 5.348090 -0.000007 -0.000001 -73.374700 5.413490 -3.951680 24.328600 0.000019 0.000005 46.679600 -44.553900 -123.489000 22.291600 -0.000001 0.000005 50.461100 4.898800 9.401700 12.994500 -0.242716 -4.980390 88.499000 4.546060 -71.706600 -5.348130 -0.000001 -0.000004 -70.931300 30.142800 -3.297200 -24.328900 0.000322 -0.000009 2.035840 6.930470 -16.422600 -22.291500 -0.000108 -0.000004 1.420610 5.224130 2.106820 -2.192480 -6.469440 -0.000000 -170.665000 4.442490 -3.576420 39.081100 -0.000007 -0.000012 0.308447 -0.579186 28.038200 40.985400 -0.000006 -0.000013 -1.369410 10.576300 -76.715700 11.754300 -0.000000 0.000003 -0.000006 0.167724 -9.774020 -2.192510 6.469440 -0.000001 -169.399000 7.359100 -176.236000 -39.081100 -0.002282 -0.040193 0.123703 -0.445693 15.114100 -40.985400 0.000008 0.000006 5.896650 -0.137634 -71.455100 -11.754300 -0.000006 -0.000006 -0.010981 0.278496 -5.256750
0.000000 0.000000 0.000000 0.000000 0.000000 -0.000000 -4.708640 91.759000 0.554958 84.460700 1.447150 3.827810 15.735700 0.000005 -0.000001 77.703000 87.205100 -74.926100 8.984550 -0.406207 -0.000000 -2.263950 -1.433040 5.525280 16.377300 -0.000001 -0.000001 7.924770 1.551650 -11.676900 6.456720 -0.000001 -0.000000 2.176100 -2.140280 -23.198500 12.994200 -0.242716 4.980390 -92.838400 7.584580 -69.412100 5.348090 -0.000007 -0.000001 -73.351500 5.274500 -3.947300 24.328600 0.000019 0.000005 46.478700 -44.378400 -123.592000 22.291600 -0.000001 0.000005 50.292300 4.899230 9.393040 12.994500 -0.242716 -4.980390 88.497500 4.550480 -71.705500 -5.348130 -0.000001 -0.000004 -70.851600 30.160200 -3.307440 -24.328900 0.000322 -0.000009 2.057550 7.002270 -16.428100 -22.291500 -0.000108 -0.000004 1.421060 5.221710 2.168900 -2.192480 -6.469440 -0.000000 -170.729000 4.360620 -3.537680 39.081100 -0.000007 -0.000012 0.303931 -0.574247 27.891400 40.985400 -0.000006 -0.000013 -1.366440 10.562900 -76.624000 11.754300 -0.000000 0.000003 0.000015 0.167367 -9.788510 -2.192510 6.469440 -0.000001 -169.482000 7.328500 -176.240000 -39.081100 -0.002282 -0.040193 0.121511 -0.439660 15.045600 -40.985400 0.000008 0.000006 5.783040 -0.025383 -71.454700 -11.754300 -0.000006 -0.000006 -0.011352 0.281144 -5.148370
0.000000 0.000000 0.000000 0.000000 0.000000 -0.000000 -4.662960 91.780800 0.577875 84.515900 1.386200 3.730840 15.735700 0.000005 -0.000001 77.857700 87.221100 -75.080600 8.984550 -0.406207 -0.000000 -2.292600 -1.412270 5.525800 16.377300 -0.000001 -0.000001 7.945170 1.556580 -11.655200 6.456720 -0.000001 -0.000000 2.180650 -2.094660 -23.174800 12.994200 -0.242716 4.980390 -92.831400 7.571410 -69.426000 5.348090 -0.000007 -0.000001 -73.383900 4.990540 -3.819870 24.328600 0.000019 0.000005 46.509300 -44.358400 -123.554000 22.291600 -0.000001 0.000005 49.977500 4.891050 9.555690 12.994500 -0.242716 -4.980390 88.504900 4.531770 -71.720000 -5.348130 -0.000001 -0.000004 -70.814900 30.077700 -3.330520 -24.328900 0.000322 -0.000009 2.087740 7.115620 -16.406400 -22.291500 -0.000108 -0.000004 1.424450 5.221220 2.181350 -2.192480 -6.469440 -0.000000 -170.788000 4.283930 -3.535750 39.081100 -0.000007 -0.000012 0.293669 -0.558213 27.748800 40.985400 -0.000006 -0.000013 -1.505250 10.591900 -76.515200 11.754300 -0.000000 0.000003 -0.000055 0.168553 -9.740350 -2.192510 6.469440 -0.000001 -169.592000 7.339310 -176.277000 -39.081100 -0.002282 -0.040193 0.118146 -0.429124 14.979200 -40.985400 0.000008 0.000006 5.650830 0.103070 -71.411200 -11.754300 -0.000006 -0.000006 -0.011184 0.279953 -5.197140
